<svg viewBox="0 0 24 24" xmlns="http://www.w3.org/2000/svg"><g data-name="Layer 2"><g data-name="Layer 1" fill="none" stroke="#001e3e" stroke-linecap="round" stroke-linejoin="round" class="stroke-000000"><ellipse cx="12.009" cy="9.501" rx="8.497" ry="8.013"></ellipse><path d="M3.512 9.6v1.908c0 4.37 3.804 7.914 8.497 7.914s8.497-3.543 8.497-7.914V9.599"></path><path d="M3.512 11.6v1.908c0 4.371 3.804 7.915 8.497 7.915s8.497-3.544 8.497-7.915V11.6"></path><path d="M3.512 13.6v1.908c0 4.371 3.804 7.915 8.497 7.915s8.497-3.544 8.497-7.915V13.6M8.461 8.51h4.086M8.461 10.453h4.086M14.937 7.046a2.865 2.865 0 0 0-2.406-1.543c-1.685 0-3.052 1.795-3.052 4.01s1.367 4.009 3.052 4.009a2.91 2.91 0 0 0 2.48-1.674"></path></g><path fill="none" d="M0 0h24v24H0z" data-name="Layer 2"></path></g></svg>