<svg viewBox="0 0 24 24" xml:space="preserve" xmlns="http://www.w3.org/2000/svg"><g fill="none" stroke="#001e3e" stroke-linecap="round" stroke-linejoin="round" class="stroke-000000"><path d="M20.607 13.542h-1.848"></path><path stroke-miterlimit="10" d="M19.594 16.565h-1.327"></path><path d="M6.5 20.563c5.372 1.834 11.767 1.72 11.767 1.72 2.454 0 1.933-2.695.159-2.695h-.708M6.5 11.434s5.065-3.982 4.701-8.146c-.275-3.159 5.59-.743 2.325 7.231h7.237c2.019 0 2.013 3.023 0 3.023h-.156c2.034 0 1.98 3.023 0 3.023h-1.013c2.018 0 2.013 3.023 0 3.023h-1.168M.5 10.5h6v12h-6z"></path></g><path fill="none" d="M0 0h24v24H0z"></path></svg>